<?xml version="1.0" encoding="utf-8"?>
<!-- Generator: Adobe Illustrator 25.2.2, SVG Export Plug-In . SVG Version: 6.00 Build 0)  -->
<svg version="1.1" id="Layer_1" xmlns="http://www.w3.org/2000/svg" xmlns:xlink="http://www.w3.org/1999/xlink" x="0px" y="0px"
	 viewBox="0 0 512 512" style="enable-background:new 0 0 512 512;" xml:space="preserve">
<style type="text/css">
	.st0{fill:#E6E7E8;}
	.st1{fill:#231F20;}
	.st2{fill:none;}
	.st3{font-family:'MyriadPro-Regular';}
	.st4{font-size:650px;}
</style>
<g>
	<path class="st0" d="M256,509.5c-67.71,0-131.37-26.37-179.25-74.25S2.5,323.71,2.5,256c0-67.71,26.37-131.37,74.25-179.25
		S188.29,2.5,256,2.5c67.71,0,131.37,26.37,179.25,74.25S509.5,188.29,509.5,256c0,67.71-26.37,131.37-74.25,179.25
		S323.71,509.5,256,509.5z"/>
	<path class="st1" d="M256,5c33.89,0,66.76,6.64,97.7,19.72c29.89,12.64,56.73,30.74,79.78,53.79
		c23.05,23.05,41.15,49.9,53.79,79.78C500.36,189.24,507,222.11,507,256s-6.64,66.76-19.72,97.7
		c-12.64,29.89-30.74,56.73-53.79,79.78c-23.05,23.05-49.9,41.15-79.78,53.79C322.76,500.36,289.89,507,256,507
		s-66.76-6.64-97.7-19.72c-29.89-12.64-56.73-30.74-79.78-53.79c-23.05-23.05-41.15-49.9-53.79-79.78C11.64,322.76,5,289.89,5,256
		s6.64-66.76,19.72-97.7c12.64-29.89,30.74-56.73,53.79-79.78c23.05-23.05,49.9-41.15,79.78-53.79C189.24,11.64,222.11,5,256,5
		 M256,0C114.62,0,0,114.62,0,256s114.62,256,256,256s256-114.62,256-256S397.38,0,256,0L256,0z"/>
</g>
<rect y="-13.79" class="st2" width="512" height="512"/>
<text transform="matrix(1 0 0 1 89.2802 472.9535)" class="st3 st4">8</text>
</svg>
